<svg width="180" height="40" viewBox="0 0 180 40" fill="none" xmlns="http://www.w3.org/2000/svg">
<g clip-path="url(#clip0_2_33)">
<rect width="40" height="40" rx="20" fill="black"/>
<path d="M49.22 14.56C49.3533 13.7733 49.64 13.2133 50.08 12.88C50.4133 12.6267 50.84 12.5 51.36 12.5C52.12 12.5 52.6867 12.76 53.06 13.28C53.34 13.6667 53.7067 14.5867 54.16 16.04L55.74 20.98L57.36 16.04C57.7333 14.88 58.0067 14.1267 58.18 13.78C58.6067 12.9267 59.2667 12.5 60.16 12.5C60.6667 12.5 61.0867 12.6267 61.42 12.88C61.8733 13.2267 62.1667 13.7867 62.3 14.56L63.58 21.94C63.7933 23.1667 63.9333 24.0333 64 24.54C64.08 25.0333 64.12 25.3733 64.12 25.56C64.12 25.96 63.98 26.32 63.7 26.64C63.42 26.96 63.0533 27.12 62.6 27.12C61.9467 27.12 61.4733 26.9 61.18 26.46C60.9933 26.1667 60.84 25.6667 60.72 24.96L59.76 18.58L57.54 25.64C57.38 26.1733 57.1667 26.5533 56.9 26.78C56.6333 27.0067 56.2533 27.12 55.76 27.12C55.28 27.12 54.9067 27.0067 54.64 26.78C54.3733 26.5533 54.1533 26.1733 53.98 25.64L51.8 18.58L50.8 24.96C50.6667 25.8533 50.4467 26.44 50.14 26.72C49.8467 26.9867 49.44 27.12 48.92 27.12C48.4667 27.12 48.1 26.96 47.82 26.64C47.54 26.32 47.4 25.96 47.4 25.56C47.4 25.2933 47.4267 24.9733 47.48 24.6C47.48 24.5733 47.6333 23.6867 47.94 21.94L49.22 14.56ZM75.4991 25.48C75.4991 25.9467 75.3524 26.34 75.0591 26.66C74.7791 26.9667 74.4057 27.12 73.9391 27.12C73.6057 27.12 73.3057 27.02 73.0391 26.82C72.7857 26.62 72.5991 26.3867 72.4791 26.12C71.8257 26.92 70.9324 27.32 69.7991 27.32C68.4524 27.32 67.3124 26.7667 66.3791 25.66C65.4457 24.5533 64.9791 23.2067 64.9791 21.62C64.9791 20.0333 65.4391 18.6933 66.3591 17.6C67.2924 16.4933 68.4391 15.94 69.7991 15.94C70.4124 15.94 70.9191 16.0267 71.3191 16.2C71.7324 16.3733 72.1191 16.6867 72.4791 17.14C72.6124 16.86 72.7857 16.6333 72.9991 16.46C73.2657 16.2467 73.5791 16.14 73.9391 16.14C74.3924 16.14 74.7657 16.2933 75.0591 16.6C75.3524 16.9067 75.4991 17.2933 75.4991 17.76V25.48ZM68.0991 21.62C68.0991 22.3933 68.2857 23.0333 68.6591 23.54C69.0457 24.0467 69.5724 24.3 70.2391 24.3C70.9057 24.3 71.4257 24.0467 71.7991 23.54C72.1857 23.02 72.3791 22.38 72.3791 21.62C72.3791 20.86 72.1991 20.24 71.8391 19.76C71.4391 19.2267 70.9057 18.96 70.2391 18.96C69.5724 18.96 69.0457 19.2133 68.6591 19.72C68.2857 20.2267 68.0991 20.86 68.0991 21.62ZM81.5858 15.94C82.5191 15.94 83.3058 16.0733 83.9458 16.34C84.8391 16.7133 85.2858 17.2733 85.2858 18.02C85.2858 18.4467 85.1591 18.8 84.9058 19.08C84.6658 19.3467 84.3658 19.48 84.0058 19.48C83.7791 19.48 83.4591 19.3933 83.0458 19.22C82.6324 19.0467 82.2058 18.96 81.7658 18.96C81.0191 18.96 80.4458 19.2133 80.0458 19.72C79.6458 20.2267 79.4458 20.86 79.4458 21.62C79.4458 22.3933 79.6324 23.0333 80.0058 23.54C80.3924 24.0467 80.9191 24.3 81.5858 24.3C82.0391 24.3 82.4524 24.24 82.8258 24.12C83.2124 24 83.6058 23.8733 84.0058 23.74C84.3524 23.74 84.6524 23.8867 84.9058 24.18C85.1591 24.4733 85.2858 24.7933 85.2858 25.14C85.2858 25.8467 84.8258 26.4067 83.9058 26.82C83.1591 27.1533 82.3858 27.32 81.5858 27.32C80.0258 27.32 78.7591 26.78 77.7858 25.7C76.8124 24.6067 76.3258 23.2467 76.3258 21.62C76.3258 20.0067 76.8124 18.66 77.7858 17.58C78.7591 16.4867 80.0258 15.94 81.5858 15.94ZM89.4514 22.66C89.4514 23.0867 89.6181 23.46 89.9514 23.78C90.3914 24.2067 91.0581 24.42 91.9514 24.42C92.5247 24.42 93.1581 24.2533 93.8514 23.92C94.5447 23.5867 94.9781 23.42 95.1514 23.42C95.5247 23.42 95.8314 23.5467 96.0714 23.8C96.3247 24.04 96.4514 24.3667 96.4514 24.78C96.4514 25.5133 95.9447 26.12 94.9314 26.6C93.9314 27.08 92.8047 27.32 91.5514 27.32C89.9247 27.32 88.6047 26.78 87.5914 25.7C86.5914 24.6067 86.0914 23.2467 86.0914 21.62C86.0914 20.06 86.6047 18.7267 87.6314 17.62C88.6581 16.5 89.9647 15.94 91.5514 15.94C93.0314 15.94 94.2581 16.4867 95.2314 17.58C96.1514 18.62 96.6114 19.8533 96.6114 21.28C96.6114 21.8 96.4914 22.16 96.2514 22.36C96.0114 22.56 95.6247 22.66 95.0914 22.66H89.4514ZM93.4914 20.5C93.4914 20.0733 93.3114 19.6667 92.9514 19.28C92.5381 18.8267 92.0447 18.6 91.4714 18.6C90.9114 18.6 90.4314 18.8133 90.0314 19.24C89.6447 19.6667 89.4514 20.0867 89.4514 20.5H93.4914ZM103.953 23.22C104.14 23.22 104.613 23.36 105.373 23.64C106.133 23.92 106.827 24.06 107.453 24.06C108.027 24.06 108.453 23.9267 108.733 23.66C109.027 23.3933 109.173 23.0733 109.173 22.7C109.173 22.14 108.747 21.7 107.893 21.38C107.733 21.3133 107.133 21.1133 106.093 20.78C104.707 20.34 103.787 19.82 103.333 19.22C102.893 18.6067 102.673 17.8333 102.673 16.9C102.673 15.4067 103.187 14.2467 104.213 13.42C105.147 12.6733 106.34 12.3 107.793 12.3C109.073 12.3 110.067 12.5 110.773 12.9C111.48 13.2867 111.833 13.8067 111.833 14.46C111.833 14.9 111.7 15.2667 111.433 15.56C111.167 15.8533 110.82 16 110.393 16C110.14 16 109.62 15.88 108.833 15.64C108.393 15.5067 107.993 15.44 107.633 15.44C107.193 15.44 106.833 15.5533 106.553 15.78C106.287 15.9933 106.153 16.2733 106.153 16.62C106.153 17.0333 106.52 17.3733 107.253 17.64C107.987 17.8933 108.633 18.1133 109.193 18.3C110.26 18.6467 111.053 19.08 111.573 19.6C112.293 20.3067 112.653 21.28 112.653 22.52C112.653 24.1067 112.127 25.32 111.073 26.16C110.1 26.9333 108.813 27.32 107.213 27.32C106.067 27.32 105.033 27.1333 104.113 26.76C102.993 26.3067 102.433 25.7067 102.433 24.96C102.433 24.48 102.567 24.0733 102.833 23.74C103.1 23.3933 103.473 23.22 103.953 23.22ZM115.221 19.16H114.861C114.341 19.16 113.934 19.0467 113.641 18.82C113.361 18.58 113.221 18.2067 113.221 17.7C113.221 17.2067 113.361 16.8467 113.641 16.62C113.921 16.38 114.327 16.26 114.861 16.26H115.221V14.2C115.221 13.7333 115.361 13.3467 115.641 13.04C115.934 12.72 116.314 12.56 116.781 12.56C117.234 12.56 117.607 12.7133 117.901 13.02C118.194 13.3267 118.341 13.72 118.341 14.2V16.26H119.201C119.721 16.26 120.121 16.38 120.401 16.62C120.694 16.8467 120.841 17.2067 120.841 17.7C120.841 18.1933 120.694 18.56 120.401 18.8C120.107 19.04 119.707 19.16 119.201 19.16H118.341V25.48C118.341 25.9467 118.194 26.34 117.901 26.66C117.621 26.9667 117.247 27.12 116.781 27.12C116.327 27.12 115.954 26.9667 115.661 26.66C115.367 26.3533 115.221 25.96 115.221 25.48V19.16ZM131.397 25.5C131.397 25.9533 131.251 26.34 130.957 26.66C130.677 26.9667 130.304 27.12 129.837 27.12C129.451 27.12 129.111 27.0133 128.817 26.8C128.577 26.6267 128.397 26.4 128.277 26.12C127.771 26.92 126.877 27.32 125.597 27.32C124.451 27.32 123.537 27.0267 122.857 26.44C122.097 25.7867 121.717 24.8467 121.717 23.62V17.78C121.717 17.3133 121.857 16.9267 122.137 16.62C122.431 16.3 122.811 16.14 123.277 16.14C123.731 16.14 124.104 16.2933 124.397 16.6C124.691 16.9067 124.837 17.3 124.837 17.78V22.76C124.837 23.32 124.984 23.78 125.277 24.14C125.584 24.4867 126.011 24.66 126.557 24.66C127.077 24.66 127.491 24.4867 127.797 24.14C128.117 23.78 128.277 23.32 128.277 22.76V17.78C128.277 17.3133 128.417 16.9267 128.697 16.62C128.991 16.3 129.371 16.14 129.837 16.14C130.291 16.14 130.664 16.2933 130.957 16.6C131.251 16.9067 131.397 17.3 131.397 17.78V25.5ZM142.804 25.48C142.804 25.9467 142.657 26.34 142.364 26.66C142.084 26.9667 141.71 27.12 141.244 27.12C140.91 27.12 140.61 27.02 140.344 26.82C140.09 26.62 139.904 26.3867 139.784 26.12C139.13 26.92 138.237 27.32 137.104 27.32C135.757 27.32 134.617 26.7667 133.684 25.66C132.75 24.5533 132.284 23.2067 132.284 21.62C132.284 20.0333 132.744 18.6933 133.664 17.6C134.597 16.4933 135.744 15.94 137.104 15.94C137.73 15.94 138.257 16.0267 138.684 16.2C139.004 16.3333 139.337 16.54 139.684 16.82V13.08C139.684 12.6133 139.824 12.2267 140.104 11.92C140.397 11.6 140.777 11.44 141.244 11.44C141.697 11.44 142.07 11.6 142.364 11.92C142.657 12.24 142.804 12.6267 142.804 13.08V25.48ZM135.404 21.62C135.404 22.3933 135.59 23.0333 135.964 23.54C136.35 24.0467 136.877 24.3 137.544 24.3C138.21 24.3 138.73 24.0467 139.104 23.54C139.49 23.02 139.684 22.38 139.684 21.62C139.684 20.86 139.504 20.24 139.144 19.76C138.744 19.2267 138.21 18.96 137.544 18.96C136.877 18.96 136.35 19.2133 135.964 19.72C135.59 20.2267 135.404 20.86 135.404 21.62ZM143.91 17.76C143.91 17.3067 144.05 16.9267 144.33 16.62C144.624 16.3 145.004 16.14 145.47 16.14C145.924 16.14 146.297 16.2933 146.59 16.6C146.884 16.9067 147.03 17.2933 147.03 17.76V25.48C147.03 25.9467 146.884 26.34 146.59 26.66C146.31 26.9667 145.937 27.12 145.47 27.12C145.017 27.12 144.644 26.9667 144.35 26.66C144.057 26.3533 143.91 25.96 143.91 25.48V17.76ZM145.47 11.44C145.99 11.44 146.43 11.62 146.79 11.98C147.15 12.34 147.33 12.7867 147.33 13.32C147.33 13.8533 147.15 14.3 146.79 14.66C146.43 15.02 145.99 15.2 145.47 15.2C144.95 15.2 144.51 15.02 144.15 14.66C143.79 14.3 143.61 13.8533 143.61 13.32C143.61 12.8 143.79 12.36 144.15 12C144.524 11.6267 144.964 11.44 145.47 11.44ZM158.524 21.62C158.524 23.2333 158.037 24.5867 157.064 25.68C156.09 26.7733 154.824 27.32 153.264 27.32C151.704 27.32 150.437 26.78 149.464 25.7C148.49 24.6067 148.004 23.2467 148.004 21.62C148.004 20.0067 148.49 18.66 149.464 17.58C150.437 16.4867 151.704 15.94 153.264 15.94C154.824 15.94 156.09 16.48 157.064 17.56C158.037 18.64 158.524 19.9933 158.524 21.62ZM151.124 21.62C151.124 22.3933 151.31 23.0333 151.684 23.54C152.07 24.0467 152.597 24.3 153.264 24.3C153.93 24.3 154.45 24.0467 154.824 23.54C155.21 23.02 155.404 22.38 155.404 21.62C155.404 20.86 155.224 20.24 154.864 19.76C154.464 19.2267 153.93 18.96 153.264 18.96C152.597 18.96 152.07 19.2133 151.684 19.72C151.31 20.2267 151.124 20.86 151.124 21.62ZM160.356 23.62C160.569 23.62 161.143 23.8267 162.076 24.24C162.529 24.44 162.956 24.54 163.356 24.54C163.663 24.54 163.883 24.4867 164.016 24.38C164.163 24.26 164.236 24.1 164.236 23.9C164.236 23.6733 164.136 23.4933 163.936 23.36C163.243 23.0667 162.536 22.7733 161.816 22.48C160.936 22.1067 160.329 21.74 159.996 21.38C159.569 20.9267 159.356 20.3 159.356 19.5C159.356 18.54 159.709 17.72 160.416 17.04C161.176 16.3067 162.163 15.94 163.376 15.94C164.176 15.94 164.929 16.1067 165.636 16.44C166.529 16.8667 166.976 17.4467 166.976 18.18C166.976 18.58 166.856 18.9 166.616 19.14C166.376 19.38 166.063 19.5 165.676 19.5C165.556 19.5 165.076 19.3267 164.236 18.98C163.809 18.8067 163.456 18.72 163.176 18.72C162.936 18.72 162.736 18.7733 162.576 18.88C162.429 18.9867 162.356 19.1533 162.356 19.38C162.356 19.6733 162.776 19.98 163.616 20.3C164.776 20.74 165.556 21.1 165.956 21.38C166.809 21.98 167.236 22.78 167.236 23.78C167.236 24.8467 166.843 25.7067 166.056 26.36C165.283 27 164.343 27.32 163.236 27.32C162.156 27.32 161.216 27.1333 160.416 26.76C159.523 26.3467 159.076 25.8067 159.076 25.14C159.076 24.7133 159.203 24.3533 159.456 24.06C159.709 23.7667 160.009 23.62 160.356 23.62Z" fill="white"/>
<mask id="mask0_2_33" style="mask-type:alpha" maskUnits="userSpaceOnUse" x="3" y="3" width="34" height="34">
<circle cx="20" cy="20" r="17" fill="white"/>
</mask>
<g mask="url(#mask0_2_33)">
<circle cx="20" cy="20" r="8" fill="white"/>
<path d="M20 8.39844L22.0974 13.0859H17.9026L20 8.39844Z" fill="white"/>
<path d="M28.2035 11.7965L26.3721 16.5941L23.4059 13.6279L28.2035 11.7965Z" fill="white"/>
<path d="M31.6016 20L26.9141 17.9026L26.9141 22.0974L31.6016 20Z" fill="white"/>
<path d="M28.2035 28.2035L26.3721 23.4059L23.4059 26.3721L28.2035 28.2035Z" fill="white"/>
<path d="M20 31.6016L22.0974 26.9141L17.9026 26.9141L20 31.6016Z" fill="white"/>
<path d="M11.7965 28.2035L16.5941 26.3721L13.6279 23.4059L11.7965 28.2035Z" fill="white"/>
<path d="M8.39844 20L13.0859 22.0974L13.0859 17.9026L8.39844 20Z" fill="white"/>
<path d="M11.7965 11.7965L13.6279 16.5941L16.5941 13.6279L11.7965 11.7965Z" fill="white"/>
<rect width="1.40417" height="5.5341" transform="matrix(-0.92388 -0.382683 -0.382683 0.92388 17.6727 27.3794)" fill="white"/>
<rect width="3.09456" height="4.45846" transform="matrix(-0.92388 -0.382683 -0.382683 0.92388 16.3675 32.7392)" fill="white"/>
<circle cx="19.9805" cy="21.0352" r="2.75391" fill="black"/>
<rect x="17.2266" y="18.2812" width="5.50781" height="2.77344" fill="white"/>
<circle cx="16.9531" cy="18.5156" r="1.5625" fill="black"/>
<rect x="15.3906" y="19.2578" width="3.125" height="0.820312" fill="white"/>
<circle cx="16.4453" cy="17.6172" r="0.3125" fill="white"/>
<circle cx="15.9766" cy="18.0859" r="0.15625" fill="white"/>
<circle cx="1.5625" cy="1.5625" r="1.5625" transform="matrix(-1 0 0 1 24.6094 16.9531)" fill="black"/>
<rect width="3.125" height="0.820312" transform="matrix(-1 0 0 1 24.6094 19.2578)" fill="white"/>
<circle cx="22.5391" cy="17.6172" r="0.3125" fill="white"/>
<circle cx="22.0703" cy="18.0859" r="0.15625" fill="white"/>
</g>
</g>
<defs>
<clipPath id="clip0_2_33">
<rect width="180" height="40" fill="white"/>
</clipPath>
</defs>
</svg>
