<svg width="512" height="512" viewBox="0 0 512 512" fill="none" xmlns="http://www.w3.org/2000/svg">
<rect width="512" height="512" fill="black"/>
<path fill-rule="evenodd" clip-rule="evenodd" d="M356.799 109.044C348.132 104.04 335.935 113.371 311.541 132.033L302.58 138.889L302.579 138.889C295.495 144.309 291.952 147.019 287.757 147.46C283.561 147.901 279.533 145.986 271.476 142.158L261.285 137.315C233.543 124.133 219.673 117.542 212.236 124.238C204.8 130.934 209.905 145.417 220.115 174.385L223.866 185.026L223.866 185.026C226.831 193.439 228.314 197.645 227.437 201.772C226.56 205.898 223.494 209.138 217.363 215.618L209.609 223.813C188.499 246.123 177.944 257.278 182.014 266.42C186.085 275.562 201.437 275.182 232.142 274.423L242.05 274.178L164.114 409.167C162.345 412.232 161.46 413.765 161.025 415.203C159.595 419.932 160.97 425.063 164.573 428.444C165.668 429.472 167.201 430.357 170.267 432.126C173.332 433.896 174.865 434.781 176.303 435.216C181.032 436.645 186.163 435.271 189.544 431.668C190.572 430.573 191.456 429.04 193.226 425.974L271.162 290.986L275.904 299.689C290.599 326.66 297.947 340.145 307.899 339.099C317.851 338.053 322.234 323.335 331 293.899L334.22 283.085L334.22 283.085C336.766 274.536 338.039 270.261 341.174 267.438C344.31 264.615 348.694 263.796 357.462 262.158L368.553 260.085C398.745 254.444 413.841 251.624 415.921 241.835C418.002 232.047 405.358 223.33 380.071 205.897L370.782 199.493C363.438 194.429 359.766 191.898 358.05 188.044C356.334 184.19 356.91 179.767 358.062 170.921L359.518 159.733C363.482 129.276 365.465 114.047 356.799 109.044Z" fill="#4951FF"/>
<path fill-rule="evenodd" clip-rule="evenodd" d="M341.799 79.0437C333.132 74.0402 320.935 83.3712 296.541 102.033L287.58 108.889L287.579 108.889C280.495 114.309 276.952 117.019 272.757 117.46C268.561 117.901 264.533 115.986 256.476 112.158L246.285 107.315C218.543 94.133 204.673 87.5419 197.236 94.2378C189.8 100.934 194.905 115.417 205.115 144.385L208.866 155.026L208.866 155.026C211.831 163.439 213.314 167.645 212.437 171.772C211.56 175.898 208.494 179.138 202.363 185.618L194.609 193.813C173.499 216.123 162.944 227.278 167.014 236.42C171.085 245.562 186.437 245.182 217.142 244.423L227.05 244.178L149.114 379.167C147.345 382.232 146.46 383.765 146.025 385.203C144.595 389.932 145.97 395.063 149.573 398.444C150.668 399.472 152.201 400.357 155.267 402.126C158.332 403.896 159.865 404.781 161.303 405.216C166.032 406.645 171.163 405.271 174.544 401.668C175.572 400.573 176.456 399.04 178.226 395.974L256.162 260.986L260.904 269.689C275.599 296.66 282.947 310.145 292.899 309.099C302.851 308.053 307.234 293.335 316 263.899L319.22 253.085L319.22 253.085C321.766 244.536 323.039 240.261 326.174 237.438C329.31 234.615 333.694 233.796 342.462 232.158L353.553 230.085C383.745 224.444 398.841 221.624 400.921 211.835C403.002 202.047 390.358 193.33 365.071 175.897L355.782 169.493C348.438 164.429 344.766 161.898 343.05 158.044C341.334 154.19 341.91 149.767 343.062 140.921L344.518 129.733C348.482 99.2757 350.465 84.0471 341.799 79.0437Z" fill="white"/>
</svg>
