<svg width="24" height="24" viewBox="0 0 24 24" fill="none" xmlns="http://www.w3.org/2000/svg">
<rect x="0.5" y="3.5" width="23" height="17" rx="1.5" fill="#2F2F2F" stroke="black"/>
<rect x="1" y="16" width="22" height="4" fill="#1C1C1C"/>
<rect x="2.5" y="5.5" width="8" height="8" rx="2.5" fill="#4951FF" stroke="black"/>
<rect x="1" y="16" width="22" height="1" fill="black"/>
<rect x="12" y="7" width="10" height="1" rx="0.5" fill="black"/>
<rect x="14" y="18" width="8" height="1" rx="0.5" fill="black"/>
<rect x="2" y="18" width="1" height="1" rx="0.5" fill="black"/>
<rect x="4" y="18" width="1" height="1" rx="0.5" fill="black"/>
<rect x="6" y="18" width="1" height="1" rx="0.5" fill="black"/>
<rect x="12" y="9" width="7" height="1" rx="0.5" fill="black"/>
<rect x="5.5" y="7.5" width="2" height="2" rx="1" fill="white" stroke="black"/>
<rect x="4.5" y="10.5" width="4" height="3" rx="1.5" fill="white" stroke="black"/>
</svg>
