<svg width="400" height="400" viewBox="0 0 400 400" fill="none" xmlns="http://www.w3.org/2000/svg">
<path d="M118.186 35.2048C116.321 36.8607 115.226 39.0154 114.39 41.306C110.719 51.3555 108.659 62.1171 105.844 72.4066C94.4679 113.988 85.4997 155.787 76.2269 197.853C71.0091 221.522 64.3868 246.162 66.4199 270.659C66.5105 271.75 65.7656 278.981 67.4215 279.489C84.9049 284.861 101.909 291.091 119.059 297.532C144.235 306.986 169.637 315.859 194.297 326.538C198.89 328.527 203.188 330.997 207.751 333.016C209.58 333.825 211.668 334.936 213.621 335.445C215.599 335.962 216.444 327.111 216.549 326.586C227.995 269.344 233.469 210.63 248.341 154.1C249.117 131.206 256.446 115.439 257.722 93.3053C258.002 88.437 258.331 82.2934 257.394 77.5635L248.963 67.8937C224.077 59.0147 208.843 55.9112 183.006 50.2027C162.667 45.7088 142.11 42.706 121.533 39.5305M255.898 70.1798C265.694 69.1057 271.88 66.0578 281.698 65.3294C286.391 64.9812 290.988 63.7408 295.702 63.64C298.909 63.5714 293.562 90.5948 293.346 91.9173C290.252 110.889 286.959 129.808 284.818 148.921C281.756 176.254 280.372 203.765 278.149 231.175C275.89 259.024 272.194 286.539 267.936 314.137C267.675 315.823 267.333 330.3 264.231 330.914C246.808 334.367 228.714 332.667 211.375 337.164M294.83 63.497C291.559 62.2548 281.925 59.4629 278.54 58.5707C265.453 55.1214 252.615 50.8459 239.64 47.0121C209.643 38.1489 178.82 34.0154 148.406 26.7096C145.256 25.9531 145.164 25.4861 141.62 26.985C131.727 31.1682 125.981 31.3283 115.804 34.7782M299.397 67.2942C306.575 81.9526 322.369 92.5348 335.048 102.315C343.818 109.08 349.694 114.937 358.551 121.59C359.013 121.937 362.759 124.095 362.895 125.294C363.341 129.225 362.269 133.935 361.52 137.652C357.978 155.215 355.763 172.888 351.543 190.295C345.375 215.74 340.011 241.287 336.023 267.135C335.632 269.67 335.858 276.218 334.125 278.286C332.502 280.223 327.66 281.838 325.658 283.221C317.073 289.148 310.342 296.301 302.435 303.044C290.475 313.243 277.914 319.126 266.417 329.814C265.772 330.414 262.276 332.314 264.174 331.722M110.402 310.243C100.507 316.817 91.0852 323.558 80.6548 329.359M242.116 345C247.656 355.447 252.066 366.672 255.576 378M126.552 216.062C124.857 220.718 118.476 236.397 128.068 237.724C137.862 239.078 149.994 233.976 158.938 231.268C167.025 228.819 173.485 225.857 180.683 222.138M81.1204 159.358C66.5791 143.217 51.7492 127.284 37 111.319M257.98 202.114C287.403 199.909 315.128 197.853 339.98 190.295M150.636 112.043C147.311 128.823 142.647 145.423 136.998 161.564C135.024 167.207 132.145 172.554 130.412 178.259M203.302 155.197C196.759 156.219 190.561 158.848 184.451 161.303C182.75 161.986 167.406 166.579 167.169 169.08C166.802 172.958 198.42 177.088 202.647 177.97M125.263 56.0175C118.691 91.9371 108.285 124.744 97.295 174.739C87.5202 219.205 83.873 233.446 81.2274 265.506C81.1264 266.731 86.9166 268.976 87.44 269.175C95.404 272.2 103.678 274.955 111.836 277.366C134.537 284.076 177.645 301.943 184.52 305.009C189.216 307.103 199.697 311.617 202.293 312.112C204.091 312.454 204.222 301.929 204.589 300.249C206.418 291.862 208.333 276.274 210.535 267.967C215.196 250.381 215.539 232.065 219.145 214.291C222.101 199.715 224.894 185.232 228.212 170.693C232.171 153.348 233.867 135.899 236.572 118.372C237.962 109.364 240.041 99.3668 239.265 90.2665C239.043 87.6663 237.137 83.3759 234.071 82.4656C200.537 70.4906 182.766 65.9073 137.487 57.904C134.508 57.1383 126.589 55.0551 125.263 56.0175Z" stroke="white" stroke-width="8" stroke-linecap="round"/>
</svg>
