<svg width="380" height="380" viewBox="0 0 380 380" fill="none" xmlns="http://www.w3.org/2000/svg">
<path d="M108.186 23.2048C106.321 24.8607 105.226 27.0154 104.39 29.306C100.719 39.3555 98.6587 50.1171 95.8437 60.4066C84.4679 101.988 75.4997 143.787 66.2269 185.853C61.0091 209.522 54.3868 234.162 56.4199 258.659C56.5105 259.75 55.7656 266.981 57.4215 267.489C74.9049 272.861 91.9089 279.091 109.059 285.532C134.235 294.986 159.637 303.859 184.297 314.538C188.89 316.527 193.188 318.997 197.751 321.016C199.58 321.825 201.668 322.936 203.621 323.445C205.599 323.962 206.444 315.111 206.549 314.586C217.995 257.344 223.469 198.63 238.341 142.1C239.117 119.206 246.446 103.439 247.722 81.3053C248.002 76.437 248.331 70.2934 247.394 65.5635L238.963 55.8937C214.077 47.0147 198.843 43.9112 173.006 38.2027C152.667 33.7088 132.11 30.706 111.533 27.5305M245.898 58.1798C255.694 57.1057 261.88 54.0578 271.698 53.3294C276.391 52.9812 280.988 51.7408 285.702 51.64C288.909 51.5714 283.562 78.5948 283.346 79.9173C280.252 98.8892 276.959 117.808 274.818 136.921C271.756 164.254 270.372 191.765 268.149 219.175C265.89 247.024 262.194 274.539 257.936 302.137C257.675 303.823 257.333 318.3 254.231 318.914C236.808 322.367 218.714 320.667 201.375 325.164M284.83 51.497C281.559 50.2548 271.925 47.4629 268.54 46.5707C255.453 43.1214 242.615 38.8459 229.64 35.0121C199.643 26.1489 168.82 22.0154 138.406 14.7096C135.256 13.9531 135.164 13.4861 131.62 14.985C121.727 19.1682 115.981 19.3283 105.804 22.7782M289.397 55.2942C296.575 69.9526 312.369 80.5348 325.048 90.3146C333.818 97.0797 339.694 102.937 348.551 109.59C349.013 109.937 352.759 112.095 352.895 113.294C353.341 117.225 352.269 121.935 351.52 125.652C347.978 143.215 345.763 160.888 341.543 178.295C335.375 203.74 330.011 229.287 326.023 255.135C325.632 257.67 325.858 264.218 324.125 266.286C322.502 268.223 317.66 269.838 315.658 271.221C307.073 277.148 300.342 284.301 292.435 291.044C280.475 301.243 267.914 307.126 256.417 317.814C255.772 318.414 252.276 320.314 254.174 319.722M100.402 298.243C90.507 304.817 81.0852 311.558 70.6548 317.359M232.116 333C237.656 343.447 242.066 354.672 245.576 366M116.552 204.062C114.857 208.718 108.476 224.397 118.068 225.724C127.862 227.078 139.994 221.976 148.938 219.268C157.025 216.819 163.485 213.857 170.683 210.138M71.1204 147.358C56.5791 131.217 41.7492 115.284 27 99.3193M247.98 190.114C277.403 187.909 305.128 185.853 329.98 178.295M140.636 100.043C137.311 116.823 132.647 133.423 126.998 149.564C125.024 155.207 122.145 160.554 120.412 166.259M193.302 143.197C186.759 144.219 180.561 146.848 174.451 149.303C172.75 149.986 157.406 154.579 157.169 157.08C156.802 160.958 188.42 165.088 192.647 165.97M115.263 44.0175C108.691 79.9371 98.2851 112.744 87.295 162.739C77.5202 207.205 73.873 221.446 71.2274 253.506C71.1264 254.731 76.9166 256.976 77.44 257.175C85.404 260.2 93.6782 262.955 101.836 265.366C124.537 272.076 167.645 289.943 174.52 293.009C179.216 295.103 189.697 299.617 192.293 300.112C194.091 300.454 194.222 289.929 194.589 288.249C196.418 279.862 198.333 264.274 200.535 255.967C205.196 238.381 205.539 220.065 209.145 202.291C212.101 187.715 214.894 173.232 218.212 158.693C222.171 141.348 223.867 123.899 226.572 106.372C227.962 97.3638 230.041 87.3668 229.265 78.2665C229.043 75.6663 227.137 71.3759 224.071 70.4656C190.537 58.4906 172.766 53.9073 127.487 45.904C124.508 45.1383 116.589 43.0551 115.263 44.0175Z" stroke="white" stroke-width="4" stroke-linecap="round"/>
</svg>
