<svg width="24" height="24" viewBox="0 0 24 24" fill="none" xmlns="http://www.w3.org/2000/svg">
<path fill-rule="evenodd" clip-rule="evenodd" d="M12.5 24H11.5C6.08 24 3.36 24 1.68 22.32C0 20.64 0 17.92 0 12.52V11.5C0 6.08 0 3.36 1.67 1.68C3.35 0 6.06 0 11.5 0H12.5C17.93 0 20.65 0 22.33 1.68C24 3.36 24 6.08 24 11.48V12.5C24 17.92 24 20.64 22.33 22.32C20.65 24 17.94 24 12.5 24ZM4.05005 7.2998C4.18005 13.5398 7.30005 17.2898 12.77 17.2898H13.08V13.7198C14.0449 13.8413 14.9524 14.2449 15.6889 14.8799C16.4253 15.515 16.958 16.3533 17.22 17.2898H20.06C19.7681 16.2116 19.2508 15.2076 18.5424 14.344C17.8339 13.4804 16.9504 12.7769 15.95 12.2798C16.8462 11.7358 17.6205 11.0128 18.2244 10.1559C18.8284 9.29898 19.249 8.32669 19.46 7.2998H16.88C16.32 9.2798 14.66 11.0798 13.08 11.2498V7.2998H10.5V14.2198C8.90005 13.8198 6.88005 11.8798 6.79005 7.2998H4.05005Z" fill="white"/>
</svg>
