<svg width="24" height="24" viewBox="0 0 24 24" fill="none" xmlns="http://www.w3.org/2000/svg">
<g clip-path="url(#clip0_230_22)">
<path d="M11.5 24H12.5C17.94 24 20.65 24 22.33 22.32C24 20.64 24 17.92 24 12.5V11.48C24 6.08 24 3.36 22.33 1.68C20.65 0 17.93 0 12.5 0H11.5C6.06 0 3.35 0 1.67 1.68C0 3.36 0 6.08 0 11.5V12.52C0 17.92 0 20.64 1.68 22.32C3.36 24 6.08 24 11.5 24Z" fill="url(#paint0_radial_230_22)"/>
<path d="M18.5882 7.18896C18.4718 7.12879 18.3584 7.06283 18.2486 6.99132C17.9293 6.7802 17.6365 6.53143 17.3765 6.25037C16.7261 5.50618 16.4832 4.75121 16.3937 4.22263H16.3973C16.3226 3.78388 16.3535 3.5 16.3581 3.5H13.3958V14.955C13.3958 15.1088 13.3958 15.2608 13.3893 15.411C13.3893 15.4296 13.3875 15.4469 13.3864 15.467C13.3864 15.4753 13.3864 15.4839 13.3846 15.4925C13.3846 15.4947 13.3846 15.4968 13.3846 15.499C13.3534 15.91 13.2216 16.307 13.001 16.6552C12.7803 17.0033 12.4774 17.2919 12.119 17.4955C11.7455 17.708 11.3231 17.8194 10.8933 17.8189C9.51312 17.8189 8.3945 16.6934 8.3945 15.3035C8.3945 13.9136 9.51312 12.7882 10.8933 12.7882C11.1546 12.7879 11.4143 12.829 11.6627 12.91L11.6663 9.89369C10.9122 9.79628 10.146 9.85622 9.41623 10.0697C8.68644 10.2832 8.00881 10.6456 7.42609 11.1341C6.91549 11.5778 6.48624 12.1071 6.15763 12.6983C6.03258 12.9139 5.56077 13.7803 5.50363 15.1864C5.4677 15.9845 5.70738 16.8113 5.82165 17.153V17.1602C5.89351 17.3614 6.172 18.0481 6.62584 18.627C6.99181 19.0914 7.42418 19.4993 7.90904 19.8376V19.8305L7.91623 19.8376C9.35034 20.8122 10.9404 20.7482 10.9404 20.7482C11.2157 20.7371 12.1377 20.7482 13.1848 20.252C14.3462 19.7018 15.0074 18.8822 15.0074 18.8822C15.4298 18.3924 15.7657 17.8343 16.0006 17.2317C16.2687 16.5271 16.3581 15.6819 16.3581 15.3441V9.26701C16.3941 9.28857 16.8727 9.60515 16.8727 9.60515C16.8727 9.60515 17.5623 10.0471 18.6381 10.335C19.41 10.5398 20.4499 10.5829 20.4499 10.5829V7.64208C20.0856 7.68161 19.3457 7.56662 18.5882 7.18896Z" fill="#FF004F"/>
<path d="M17.5882 6.18896C17.4718 6.12879 17.3584 6.06283 17.2486 5.99132C16.9293 5.7802 16.6365 5.53143 16.3765 5.25037C15.7261 4.50618 15.4832 3.75121 15.3937 3.22263H15.3973C15.3226 2.78388 15.3535 2.5 15.3581 2.5H12.3958V13.955C12.3958 14.1088 12.3958 14.2608 12.3893 14.411C12.3893 14.4296 12.3875 14.4469 12.3864 14.467C12.3864 14.4753 12.3864 14.4839 12.3846 14.4925C12.3846 14.4947 12.3846 14.4968 12.3846 14.499C12.3534 14.91 12.2216 15.307 12.001 15.6552C11.7803 16.0033 11.4774 16.2919 11.119 16.4955C10.7455 16.708 10.3231 16.8194 9.89334 16.8189C8.51312 16.8189 7.3945 15.6934 7.3945 14.3035C7.3945 12.9136 8.51312 11.7882 9.89334 11.7882C10.1546 11.7879 10.4143 11.829 10.6627 11.91L10.6663 8.89369C9.91216 8.79628 9.14603 8.85622 8.41623 9.06971C7.68644 9.28321 7.00881 9.64563 6.42609 10.1341C5.91549 10.5778 5.48624 11.1071 5.15763 11.6983C5.03258 11.9139 4.56077 12.7803 4.50363 14.1864C4.4677 14.9845 4.70738 15.8113 4.82165 16.153V16.1602C4.89351 16.3614 5.172 17.0481 5.62584 17.627C5.99181 18.0914 6.42418 18.4993 6.90904 18.8376V18.8305L6.91623 18.8376C8.35034 19.8122 9.94041 19.7482 9.94041 19.7482C10.2157 19.7371 11.1377 19.7482 12.1848 19.252C13.3462 18.7018 14.0074 17.8822 14.0074 17.8822C14.4298 17.3924 14.7657 16.8343 15.0006 16.2317C15.2687 15.5271 15.3581 14.6819 15.3581 14.3441V8.26701C15.3941 8.28857 15.8727 8.60515 15.8727 8.60515C15.8727 8.60515 16.5623 9.04713 17.6381 9.33496C18.41 9.53978 19.4499 9.5829 19.4499 9.5829V6.64208C19.0856 6.68161 18.3457 6.56662 17.5882 6.18896Z" fill="#00F2EA"/>
<path fill-rule="evenodd" clip-rule="evenodd" d="M19.4499 7.51868C19.1798 7.44484 18.8853 7.33711 18.5882 7.18896C18.4718 7.12879 18.3584 7.06283 18.2486 6.99132C17.9293 6.7802 17.6365 6.53143 17.3765 6.25037C17.2675 6.12569 17.17 6.00071 17.0827 5.87655C16.8274 5.69176 16.5908 5.48203 16.3765 5.25037C15.8328 4.62827 15.5739 3.99863 15.4513 3.5H13.3958V14.955C13.3958 15.1088 13.3958 15.2608 13.3893 15.411C13.3893 15.4236 13.3885 15.4355 13.3876 15.4481C13.3872 15.4542 13.3868 15.4605 13.3864 15.467C13.3864 15.4753 13.3864 15.4839 13.3846 15.4925V15.499C13.3534 15.91 13.2217 16.307 13.001 16.6552C12.7803 17.0033 12.4774 17.2919 12.119 17.4955C11.7455 17.708 11.3231 17.8194 10.8933 17.8189C9.94978 17.8189 9.12848 17.2929 8.70325 16.516C7.92371 16.0904 7.3945 15.2595 7.3945 14.3035C7.3945 12.9136 8.51312 11.7882 9.89334 11.7882C10.1546 11.7879 10.4143 11.829 10.6627 11.91L10.6651 9.85633C10.2431 9.87907 9.824 9.95042 9.41623 10.0697C8.68644 10.2832 8.00881 10.6456 7.42609 11.1341C6.91549 11.5778 6.48624 12.1071 6.15763 12.6983C6.03258 12.9139 5.56077 13.7803 5.50363 15.1864C5.4677 15.9845 5.70738 16.8113 5.82165 17.153V17.1602C5.89351 17.3614 6.172 18.0481 6.62584 18.627C6.62612 18.6274 6.6264 18.6277 6.62667 18.6281C6.71866 18.7006 6.81281 18.7705 6.90904 18.8376V18.8305L6.91623 18.8376C8.35034 19.8122 9.94041 19.7482 9.94041 19.7482C9.9612 19.7474 9.98568 19.7466 10.0136 19.7458C10.3557 19.7359 11.2168 19.7107 12.1848 19.252C13.3462 18.7018 14.0074 17.8822 14.0074 17.8822C14.4298 17.3924 14.7657 16.8343 15.0006 16.2317C15.2687 15.5271 15.3581 14.6819 15.3581 14.3441V8.26701C15.3941 8.28857 15.8727 8.60515 15.8727 8.60515C15.8727 8.60515 16.5623 9.04713 17.6381 9.33496C18.41 9.53978 19.4499 9.5829 19.4499 9.5829V7.51868Z" fill="white"/>
</g>
<defs>
<radialGradient id="paint0_radial_230_22" cx="0" cy="0" r="1" gradientUnits="userSpaceOnUse" gradientTransform="translate(12 12) rotate(90) scale(14)">
<stop stop-color="#470038"/>
<stop offset="1"/>
</radialGradient>
<clipPath id="clip0_230_22">
<rect width="24" height="24" fill="white"/>
</clipPath>
</defs>
</svg>
