<svg width="24" height="24" viewBox="0 0 24 24" fill="none" xmlns="http://www.w3.org/2000/svg">
<path d="M23.4982 5.62364C23.2216 4.59039 22.4096 3.7784 21.3763 3.50181C19.5055 3 12 3 12 3C12 3 4.49456 3 2.62364 3.50181C1.59039 3.7784 0.778399 4.59039 0.501811 5.62364C1.50211e-07 7.49456 0 11.4004 0 11.4004C0 11.4004 1.50211e-07 15.3062 0.501811 17.1772C0.778399 18.2104 1.59039 19.0224 2.62364 19.2989C4.49456 19.8008 12 19.8008 12 19.8008C12 19.8008 19.5055 19.8008 21.3763 19.2989C22.4096 19.0224 23.2216 18.2104 23.4982 17.1772C24 15.3062 24 11.4004 24 11.4004C24 11.4004 23.998 7.49456 23.4982 5.62364Z" fill="#FF0033"/>
<path d="M9.5977 15.0003L15.8328 11.4007L9.5977 7.8011V15.0003Z" fill="white"/>
</svg>